<svg width="177" height="35" viewBox="0 0 177 35" fill="none" xmlns="http://www.w3.org/2000/svg">
<path d="M47.2225 27.9398H44.1225C43.8691 27.9398 43.6825 27.8865 43.5625 27.7798C43.4558 27.6598 43.4025 27.4732 43.4025 27.2198V14.2598C43.4025 14.0065 43.4558 13.8265 43.5625 13.7198C43.6825 13.5998 43.8691 13.5398 44.1225 13.5398H47.2225C47.4758 13.5398 47.6558 13.5998 47.7625 13.7198C47.8825 13.8265 47.9425 14.0065 47.9425 14.2598V18.5998H51.2825V14.2598C51.2825 14.0065 51.3358 13.8265 51.4425 13.7198C51.5625 13.5998 51.7491 13.5398 52.0025 13.5398H55.1025C55.3558 13.5398 55.5358 13.5998 55.6425 13.7198C55.7625 13.8265 55.8225 14.0065 55.8225 14.2598V27.2198C55.8225 27.4732 55.7625 27.6598 55.6425 27.7798C55.5358 27.8865 55.3558 27.9398 55.1025 27.9398H52.0025C51.7491 27.9398 51.5625 27.8865 51.4425 27.7798C51.3358 27.6598 51.2825 27.4732 51.2825 27.2198V22.7798H47.9425V27.2198C47.9425 27.4732 47.8825 27.6598 47.7625 27.7798C47.6558 27.8865 47.4758 27.9398 47.2225 27.9398ZM66.8982 25.0798H62.8382L59.4582 20.5598C59.1516 20.1465 58.9449 19.7865 58.8382 19.4798C58.7449 19.1732 58.6982 18.7132 58.6982 18.0998V14.2598C58.6982 14.0065 58.7516 13.8265 58.8582 13.7198C58.9782 13.5998 59.1649 13.5398 59.4182 13.5398H62.4982C62.7516 13.5398 62.9316 13.5998 63.0382 13.7198C63.1582 13.8265 63.2182 14.0065 63.2182 14.2598V17.5398C63.2182 17.6732 63.2249 17.8132 63.2382 17.9598C63.2516 18.1065 63.3049 18.2465 63.3982 18.3798L64.3182 19.8198C64.3849 19.9398 64.4516 20.0265 64.5182 20.0798C64.5982 20.1332 64.6916 20.1598 64.7982 20.1598H64.9982C65.1049 20.1598 65.1916 20.1332 65.2582 20.0798C65.3382 20.0265 65.4116 19.9398 65.4782 19.8198L66.3982 18.3798C66.4916 18.2465 66.5449 18.1065 66.5582 17.9598C66.5716 17.8132 66.5782 17.6732 66.5782 17.5398V14.2598C66.5782 14.0065 66.6316 13.8265 66.7382 13.7198C66.8582 13.5998 67.0449 13.5398 67.2982 13.5398H70.2782C70.5316 13.5398 70.7116 13.5998 70.8182 13.7198C70.9382 13.8265 70.9982 14.0065 70.9982 14.2598V18.0998C70.9982 18.7132 70.9449 19.1732 70.8382 19.4798C70.7316 19.7865 70.5316 20.1465 70.2382 20.5598L66.8982 25.0798ZM66.4782 27.9398H63.2382C62.9849 27.9398 62.7982 27.8865 62.6782 27.7798C62.5716 27.6598 62.5182 27.4732 62.5182 27.2198V23.4598H67.1982V27.2198C67.1982 27.4732 67.1382 27.6598 67.0182 27.7798C66.9116 27.8865 66.7316 27.9398 66.4782 27.9398ZM77.6998 27.9398H74.5998C74.3465 27.9398 74.1598 27.8865 74.0398 27.7798C73.9331 27.6598 73.8798 27.4732 73.8798 27.2198V14.2598C73.8798 14.0065 73.9331 13.8265 74.0398 13.7198C74.1598 13.5998 74.3465 13.5398 74.5998 13.5398H80.7198C82.5331 13.5398 83.7731 13.8998 84.4398 14.6198C85.1065 15.3398 85.4398 16.2798 85.4398 17.4398V19.9998C85.4398 21.1598 85.1065 22.0998 84.4398 22.8198C83.7731 23.5398 82.5331 23.8998 80.7198 23.8998H78.4198V27.2198C78.4198 27.4732 78.3598 27.6598 78.2398 27.7798C78.1331 27.8865 77.9531 27.9398 77.6998 27.9398ZM78.3798 17.2798V20.2998H80.1798C80.5665 20.2998 80.8198 20.1998 80.9398 19.9998C81.0598 19.7998 81.1198 19.5732 81.1198 19.3198V18.2598C81.1198 18.0065 81.0598 17.7798 80.9398 17.5798C80.8198 17.3798 80.5665 17.2798 80.1798 17.2798H78.3798ZM98.1126 27.9398H88.8326C88.5793 27.9398 88.3926 27.8865 88.2726 27.7798C88.1659 27.6598 88.1126 27.4732 88.1126 27.2198V14.2598C88.1126 14.0065 88.1659 13.8265 88.2726 13.7198C88.3926 13.5998 88.5793 13.5398 88.8326 13.5398H98.1126C98.3659 13.5398 98.5459 13.5998 98.6526 13.7198C98.7726 13.8265 98.8326 14.0065 98.8326 14.2598V16.5998C98.8326 16.8532 98.7726 17.0398 98.6526 17.1598C98.5459 17.2665 98.3659 17.3198 98.1126 17.3198H92.5926V18.8598H96.4926C96.746 18.8598 96.926 18.9198 97.0326 19.0398C97.1526 19.1465 97.2126 19.3265 97.2126 19.5798V21.7198C97.2126 21.9732 97.1526 22.1598 97.0326 22.2798C96.926 22.3865 96.746 22.4398 96.4926 22.4398H92.5926V24.1598H98.1126C98.3659 24.1598 98.5459 24.2198 98.6526 24.3398C98.7726 24.4465 98.8326 24.6265 98.8326 24.8798V27.2198C98.8326 27.4732 98.7726 27.6598 98.6526 27.7798C98.5459 27.8865 98.3659 27.9398 98.1126 27.9398ZM111.281 27.9398H106.401C104.734 27.9398 103.494 27.6065 102.681 26.9398C101.881 26.2732 101.481 25.2465 101.481 23.8598V17.6398C101.481 16.2532 101.881 15.2265 102.681 14.5598C103.494 13.8798 104.734 13.5398 106.401 13.5398H111.281C111.534 13.5398 111.714 13.5998 111.821 13.7198C111.941 13.8265 112.001 14.0065 112.001 14.2598V16.6798C112.001 16.9332 111.941 17.1198 111.821 17.2398C111.714 17.3465 111.534 17.3998 111.281 17.3998H107.261C106.848 17.3998 106.541 17.4865 106.341 17.6598C106.141 17.8198 106.041 18.0665 106.041 18.3998V23.1598C106.041 23.4932 106.141 23.7398 106.341 23.8998C106.541 24.0465 106.848 24.1198 107.261 24.1198H111.281C111.534 24.1198 111.714 24.1798 111.821 24.2998C111.941 24.4065 112.001 24.5865 112.001 24.8398V27.2198C112.001 27.4732 111.941 27.6598 111.821 27.7798C111.714 27.8865 111.534 27.9398 111.281 27.9398ZM119.379 17.1398V19.6998H120.879C121.226 19.6998 121.459 19.6132 121.579 19.4398C121.699 19.2532 121.759 19.0265 121.759 18.7598V18.0798C121.759 17.8132 121.699 17.5932 121.579 17.4198C121.459 17.2332 121.226 17.1398 120.879 17.1398H119.379ZM118.659 27.9398H115.579C115.326 27.9398 115.139 27.8865 115.019 27.7798C114.913 27.6598 114.859 27.4732 114.859 27.2198V14.2598C114.859 14.0065 114.913 13.8265 115.019 13.7198C115.139 13.5998 115.326 13.5398 115.579 13.5398H122.239C123.733 13.5398 124.759 13.8532 125.319 14.4798C125.893 15.0932 126.179 15.8932 126.179 16.8798V17.7998C126.179 18.3598 126.093 18.8398 125.919 19.2398C125.759 19.6265 125.473 19.9065 125.059 20.0798C125.779 20.1598 126.359 20.4532 126.799 20.9598C127.253 21.4665 127.479 22.1398 127.479 22.9798V27.2198C127.479 27.4732 127.419 27.6598 127.299 27.7798C127.193 27.8865 127.013 27.9398 126.759 27.9398H123.659C123.406 27.9398 123.219 27.8865 123.099 27.7798C122.993 27.6598 122.939 27.4732 122.939 27.2198V24.1598C122.939 23.8665 122.879 23.6532 122.759 23.5198C122.653 23.3732 122.459 23.2998 122.179 23.2998H119.379V27.2198C119.379 27.4732 119.319 27.6598 119.199 27.7798C119.093 27.8865 118.913 27.9398 118.659 27.9398ZM135.543 17.7398L134.603 20.7798H137.743L136.803 17.7398C136.749 17.6198 136.689 17.5332 136.623 17.4798C136.569 17.4265 136.503 17.3998 136.423 17.3998H135.923C135.843 17.3998 135.769 17.4265 135.703 17.4798C135.649 17.5332 135.596 17.6198 135.543 17.7398ZM134.403 27.2198C134.403 27.4732 134.343 27.6598 134.223 27.7798C134.116 27.8865 133.936 27.9398 133.683 27.9398H130.743C130.489 27.9398 130.303 27.8865 130.183 27.7798C130.076 27.6598 130.023 27.4732 130.023 27.2198V21.9398C130.023 21.5398 130.083 21.0798 130.203 20.5598C130.336 20.0398 130.536 19.4332 130.803 18.7398L132.543 14.1998C132.623 13.9732 132.743 13.8065 132.903 13.6998C133.076 13.5932 133.296 13.5398 133.563 13.5398H138.943C139.196 13.5398 139.403 13.5932 139.563 13.6998C139.736 13.8065 139.863 13.9732 139.943 14.1998L141.683 18.7398C141.949 19.4332 142.143 20.0398 142.263 20.5598C142.396 21.0798 142.463 21.5398 142.463 21.9398V27.2198C142.463 27.4732 142.403 27.6598 142.283 27.7798C142.176 27.8865 141.996 27.9398 141.743 27.9398H138.723C138.456 27.9398 138.256 27.8865 138.123 27.7798C138.003 27.6598 137.943 27.4732 137.943 27.2198V24.4198H134.403V27.2198ZM149.352 27.9398H146.252C145.999 27.9398 145.812 27.8865 145.692 27.7798C145.585 27.6598 145.532 27.4732 145.532 27.2198V14.2598C145.532 14.0065 145.585 13.8265 145.692 13.7198C145.812 13.5998 145.999 13.5398 146.252 13.5398H155.172C155.425 13.5398 155.605 13.5998 155.712 13.7198C155.832 13.8265 155.892 14.0065 155.892 14.2598V16.6398C155.892 16.8932 155.832 17.0798 155.712 17.1998C155.605 17.3065 155.425 17.3598 155.172 17.3598H150.072V19.4398H153.552C153.805 19.4398 153.985 19.4998 154.092 19.6198C154.212 19.7265 154.272 19.9065 154.272 20.1598V22.5598C154.272 22.8132 154.212 22.9998 154.092 23.1198C153.985 23.2265 153.805 23.2798 153.552 23.2798H150.072V27.2198C150.072 27.4732 150.012 27.6598 149.892 27.7798C149.785 27.8865 149.605 27.9398 149.352 27.9398ZM165.295 27.9398H162.055C161.802 27.9398 161.615 27.8865 161.495 27.7798C161.389 27.6598 161.335 27.4732 161.335 27.2198V17.3998H158.395C158.142 17.3998 157.955 17.3465 157.835 17.2398C157.729 17.1198 157.675 16.9332 157.675 16.6798V14.2598C157.675 14.0065 157.729 13.8265 157.835 13.7198C157.955 13.5998 158.142 13.5398 158.395 13.5398H168.955C169.209 13.5398 169.389 13.5998 169.495 13.7198C169.615 13.8265 169.675 14.0065 169.675 14.2598V16.6798C169.675 16.9332 169.615 17.1198 169.495 17.2398C169.389 17.3465 169.209 17.3998 168.955 17.3998H166.015V27.2198C166.015 27.4732 165.955 27.6598 165.835 27.7798C165.729 27.8865 165.549 27.9398 165.295 27.9398Z" fill="black"/>
<rect x="1" y="10.2632" width="31.0827" height="20.4962" rx="4" fill="#12E77B" stroke="black" stroke-width="2"/>
<circle cx="16.5414" cy="3.30827" r="2.80827" fill="black" stroke="black"/>
<ellipse cx="23.1578" cy="19.188" rx="1.98496" ry="1.98496" fill="black"/>
<ellipse cx="9.9249" cy="19.188" rx="1.98496" ry="1.98496" fill="black"/>
<path d="M19.1888 22.7715C18.9942 23.3213 18.6333 23.7968 18.1562 24.1322C17.679 24.4675 17.1093 24.646 16.5261 24.6428C15.943 24.6396 15.3752 24.455 14.9018 24.1145C14.4283 23.774 14.0726 23.2945 13.884 22.7426" stroke="black"/>
<line x1="16.3796" y1="5.29321" x2="16.3796" y2="11.9098" stroke="black"/>
</svg>
